<svg version="1.1" id="Layer_1" xmlns="http://www.w3.org/2000/svg" xmlns:xlink="http://www.w3.org/1999/xlink" x="0px" y="0px" width="32px" height="32px" viewBox="0 0 32 32" enable-background="new 0 0 32 32" xml:space="preserve">
  <g id="main">
    <g id="icon">
      <g>
        <path d="M3.991,0.5506L3.712,0.7098L3.551,0.9891L3.5,1.4L3.5,28.6L3.551,29.01L3.712,29.29L3.991,29.45L4.4,29.5L16,29.5L16,23L16,22L16,20L16.04,19.6L16.16,19.22L16.34,18.88L16.59,18.59L16.88,18.34L17.22,18.16L17.6,18.04L18,18L22.37,18L22.89,18.05L23.37,18.2L23.82,18.44L24.21,18.76L25.28,19.82L25.47,19.95L25.7,20L26.5,20L26.5,8.8L26.47,8.489L26.39,8.226L26.27,8L26.1,7.8L19.2,0.8998L18.94,0.6896L18.71,0.5686L18.3,0.5L4.4,0.5zz" fill-rule="evenodd" fill="#FFFFFF"/>
        <path d="M4.077,0.02266L3.795,0.09004L3.554,0.2016L3.356,0.3564L3.202,0.5545L3.09,0.7949L3.023,1.077L3,1.4L3,28.6L3.023,28.92L3.09,29.21L3.202,29.45L3.356,29.64L3.554,29.8L3.795,29.91L4.077,29.98L4.4,30L16,30L16,29L4.4,29L4.185,28.99L4.064,28.94L4.012,28.82L4,28.6L4,1.4L4.012,1.185L4.064,1.064L4.185,1.012L4.4,1L18,1L18,7.7L18.03,7.962L18.1,8.205L18.38,8.619L18.79,8.898L19.04,8.974L19.3,9L26,9L26,20L27,20L27,8.8L26.97,8.409L26.87,8.056L26.7,7.738L26.45,7.446L19.55,0.5463L19.27,0.3059L18.97,0.1354L18.64,0.03359L18.3,0L4.4,0zM25.59,8L19.3,8L19.09,7.912L19,7.7L19,1.407zz" fill="#6D6E71"/>
      </g>
      <path d="M6.305,4.039L6.146,4.146L6.039,4.305L6,4.5L6.039,4.695L6.146,4.854L6.305,4.961L6.5,5L15.5,5L15.69,4.961L15.85,4.854L15.96,4.695L16,4.5L15.96,4.305L15.85,4.146L15.69,4.039L15.5,4L6.5,4zM6.305,6.039L6.146,6.146L6.039,6.305L6,6.5L6.039,6.695L6.146,6.854L6.305,6.961L6.5,7L15.5,7L15.69,6.961L15.85,6.854L15.96,6.695L16,6.5L15.96,6.305L15.85,6.146L15.69,6.039L15.5,6L6.5,6zM6.305,8.039L6.146,8.146L6.039,8.305L6,8.5L6.039,8.695L6.146,8.854L6.305,8.961L6.5,9L15.5,9L15.69,8.961L15.85,8.854L15.96,8.695L16,8.5L15.96,8.305L15.85,8.146L15.69,8.039L15.5,8L6.5,8zM6.305,10.04L6.146,10.15L6.039,10.31L6,10.5L6.039,10.69L6.146,10.85L6.305,10.96L6.5,11L15.5,11L15.69,10.96L15.85,10.85L15.96,10.69L16,10.5L15.96,10.31L15.85,10.15L15.69,10.04L15.5,10L6.5,10zM6.305,12.04L6.146,12.15L6.039,12.31L6,12.5L6.039,12.69L6.146,12.85L6.305,12.96L6.5,13L23.5,13L23.69,12.96L23.85,12.85L23.96,12.69L24,12.5L23.96,12.31L23.85,12.15L23.69,12.04L23.5,12L6.5,12zM6.305,14.04L6.146,14.15L6.039,14.31L6,14.5L6.039,14.69L6.146,14.85L6.305,14.96L6.5,15L23.5,15L23.69,14.96L23.85,14.85L23.96,14.69L24,14.5L23.96,14.31L23.85,14.15L23.69,14.04L23.5,14L6.5,14zM6.305,16.04L6.146,16.15L6.039,16.31L6,16.5L6.039,16.69L6.146,16.85L6.305,16.96L6.5,17L23.5,17L23.69,16.96L23.85,16.85L23.96,16.69L24,16.5L23.96,16.31L23.85,16.15L23.69,16.04L23.5,16L6.5,16zM6.305,18.04L6.146,18.15L6.039,18.31L6,18.5L6.039,18.69L6.146,18.85L6.305,18.96L6.5,19L16.28,19L16.34,18.88L16.59,18.59L16.88,18.34L17.22,18.16L17.6,18.04L18,18L6.5,18zM22.89,18.05L23.37,18.2L23.82,18.44L23.98,18.57L24,18.5L23.96,18.31L23.85,18.15L23.69,18.04L23.5,18L22.37,18zM6.305,20.04L6.146,20.15L6.039,20.31L6,20.5L6.039,20.69L6.146,20.85L6.305,20.96L6.5,21L16,21L16,20L6.5,20zM6.305,22.04L6.146,22.15L6.039,22.31L6,22.5L6.039,22.69L6.146,22.85L6.305,22.96L6.5,23L16,23L16,22L6.5,22zM6.305,24.04L6.146,24.15L6.039,24.31L6,24.5L6.039,24.69L6.146,24.85L6.305,24.96L6.5,25L16,25L16,24L6.5,24zM6.305,26.04L6.146,26.15L6.039,26.31L6,26.5L6.039,26.69L6.146,26.85L6.305,26.96L6.5,27L16,27L16,26L6.5,26zz" fill="#B4B4B5"/>
    </g>
    <g id="overlay">
      <path d="M17,23h14.9963l0.0033,7.9996c0.0002,0.5524,-0.4476,1.0004,-1,1.0004H18c-0.5523,0,-1,-0.4477,-1,-1V23z" fill-rule="evenodd" fill="#E5BD67"/>
      <path d="M32,22H17v-2c0,-0.5523,0.4477,-1,1,-1h4.3741c0.4243,0,0.8313,0.1686,1.1314,0.4686l1.0628,1.0627c0.3001,0.3001,0.707,0.4686,1.1314,0.4686H31C31.5523,21,32,21.4477,32,22L32,22z" fill-rule="evenodd" fill="#96762C"/>
    </g>
  </g>
</svg>